/* XPM */
static char * jext2_xpm[] = {
"32 32 41 1",
" 	c None",
".	c #FFFFFF",
"+	c #EFEFFF",
"@	c #CECEFF",
"#	c #C6C6FF",
"$	c #BDBDFF",
"%	c #B5B5FF",
"&	c #A5A5FF",
"*	c #39398C",
"=	c #E7E7FF",
"-	c #F7F7FF",
";	c #D6D6FF",
">	c #8C8CFF",
",	c #4A4AAD",
"'	c #000000",
")	c #ADADFF",
"!	c #6B6BFF",
"~	c #8484FF",
"{	c #DEDEFF",
"]	c #424294",
"^	c #000008",
"/	c #5252BD",
"(	c #5252C6",
"_	c #EFEFEF",
":	c #6363EF",
"<	c #393984",
"[	c #080808",
"}	c #4A4A73",
"|	c #9C9CD6",
"1	c #A5A5F7",
"2	c #A5A5E7",
"3	c #4A4AB5",
"4	c #5252CE",
"5	c #7373FF",
"6	c #101021",
"7	c #080818",
"8	c #393963",
"9	c #6B6BA5",
"0	c #393952",
"a	c #31314A",
"b	c #5A5A8C",
"                                ",
"                                ",
"          .+@###$#$#$%&*        ",
"          =--;@@@;;@%>,'        ",
"          ##)>!~&{-=&]^'        ",
"          >,''''',){>'''        ",
"          ,^''''']~)/'''        ",
"                 ~&)('''        ",
"  '''''''''''''''%$$~''''''     ",
"  '______________$##~'''__'     ",
"  '______________$##~'''__'     ",
"  '______________$##~'''__'     ",
"  '___''''''_____$##~'''__'     ",
"  '____________;_$##~'''__'     ",
"  '______________$##~'''__'     ",
"  '______________$##~'''__'     ",
"  '____;'''''''''###~'''__'     ",
"  '______________$##~'''__'     ",
"  '______________@#;~'''__'     ",
"  '___'''''''''''={{~'''__'     ",
"  '______________=++:'''__'     ",
"  '_____________@---<''[__'     ",
"  '___'''''''''';--{'''}__'     ",
"  '_____$;____;;..+<'''|__'     ",
"  '____=-@1);+-..+:'''[=__'     ",
"  '____#+=%%{--=%<''''2___'     ",
"  '____%1~345:*6'''''|''__'     ",
"  '____137'''''''''8@_____'     ",
"  '____29}0''''ab|;_______'     ",
"  '_______________________'     ",
"  '''''''''''''''''''''''''     ",
"                                "};
