/* XPM */
static char *jext[] = {
/* width height num_colors chars_per_pixel */
"    32    32      256            2",
/* colors */
"`` c #000000",
"`. c #000008",
"`# c #080808",
"`a c #080818",
"`b c #101021",
"`c c #31314a",
"`d c #313184",
"`e c #393952",
"`f c #393963",
"`g c #393984",
"`h c #39398c",
"`i c #424294",
"`j c #42429c",
"`k c #4242a5",
"`l c #4a4a73",
"`m c #4a4aad",
"`n c #4a4ab5",
"`o c #5252bd",
"`p c #5252c6",
"`q c #5252ce",
"`r c #5a5a8c",
"`s c #6363ef",
"`t c #6363f7",
"`u c #6b6ba5",
"`v c #6b6bff",
"`w c #7373ff",
"`x c #8484ff",
"`y c #8c8cff",
"`z c #9c9cd6",
"`A c #9c9cde",
"`B c #a5a5e7",
"`C c #a5a5f7",
"`D c #a5a5ff",
"`E c #adadff",
"`F c #b5b5ff",
"`G c #bdbdff",
"`H c #c6c6ff",
"`I c #ceceff",
"`J c #d6d6ff",
"`K c #dedeff",
"`L c #e7e7ff",
"`M c #efefef",
"`N c #efefff",
"`O c #f7f7ff",
"`P c #ffffff",
"`Q c #ffffff",
"`R c #ffffff",
"`S c #ffffff",
"`T c #ffffff",
"`U c #ffffff",
"`V c #ffffff",
"`W c #ffffff",
"`X c #ffffff",
"`Y c #ffffff",
"`Z c #ffffff",
"`0 c #ffffff",
"`1 c #ffffff",
"`2 c #ffffff",
"`3 c #ffffff",
"`4 c #ffffff",
"`5 c #ffffff",
"`6 c #ffffff",
"`7 c #ffffff",
"`8 c #ffffff",
".` c #ffffff",
".. c #ffffff",
".# c #ffffff",
".a c #ffffff",
".b c #ffffff",
".c c #ffffff",
".d c #ffffff",
".e c #ffffff",
".f c #ffffff",
".g c #ffffff",
".h c #ffffff",
".i c #ffffff",
".j c #ffffff",
".k c #ffffff",
".l c #ffffff",
".m c #ffffff",
".n c #ffffff",
".o c #ffffff",
".p c #ffffff",
".q c #ffffff",
".r c #ffffff",
".s c #ffffff",
".t c #ffffff",
".u c #ffffff",
".v c #ffffff",
".w c #ffffff",
".x c #ffffff",
".y c #ffffff",
".z c #ffffff",
".A c #ffffff",
".B c #ffffff",
".C c #ffffff",
".D c #ffffff",
".E c #ffffff",
".F c #ffffff",
".G c #ffffff",
".H c #ffffff",
".I c #ffffff",
".J c #ffffff",
".K c #ffffff",
".L c #ffffff",
".M c #ffffff",
".N c #ffffff",
".O c #ffffff",
".P c #ffffff",
".Q c #ffffff",
".R c #ffffff",
".S c #ffffff",
".T c #ffffff",
".U c #ffffff",
".V c #ffffff",
".W c #ffffff",
".X c #ffffff",
".Y c #ffffff",
".Z c #ffffff",
".0 c #ffffff",
".1 c #ffffff",
".2 c #ffffff",
".3 c #ffffff",
".4 c #ffffff",
".5 c #ffffff",
".6 c #ffffff",
".7 c #ffffff",
".8 c #ffffff",
"#` c #ffffff",
"#. c #ffffff",
"## c #ffffff",
"#a c #ffffff",
"#b c #ffffff",
"#c c #ffffff",
"#d c #ffffff",
"#e c #ffffff",
"#f c #ffffff",
"#g c #ffffff",
"#h c #ffffff",
"#i c #ffffff",
"#j c #ffffff",
"#k c #ffffff",
"#l c #ffffff",
"#m c #ffffff",
"#n c #ffffff",
"#o c #ffffff",
"#p c #ffffff",
"#q c #ffffff",
"#r c #ffffff",
"#s c #ffffff",
"#t c #ffffff",
"#u c #ffffff",
"#v c #ffffff",
"#w c #ffffff",
"#x c #ffffff",
"#y c #ffffff",
"#z c #ffffff",
"#A c #ffffff",
"#B c #ffffff",
"#C c #ffffff",
"#D c #ffffff",
"#E c #ffffff",
"#F c #ffffff",
"#G c #ffffff",
"#H c #ffffff",
"#I c #ffffff",
"#J c #ffffff",
"#K c #ffffff",
"#L c #ffffff",
"#M c #ffffff",
"#N c #ffffff",
"#O c #ffffff",
"#P c #ffffff",
"#Q c #ffffff",
"#R c #ffffff",
"#S c #ffffff",
"#T c #ffffff",
"#U c #ffffff",
"#V c #ffffff",
"#W c #ffffff",
"#X c #ffffff",
"#Y c #ffffff",
"#Z c #ffffff",
"#0 c #ffffff",
"#1 c #ffffff",
"#2 c #ffffff",
"#3 c #ffffff",
"#4 c #ffffff",
"#5 c #ffffff",
"#6 c #ffffff",
"#7 c #ffffff",
"#8 c #ffffff",
"a` c #ffffff",
"a. c #ffffff",
"a# c #ffffff",
"aa c #ffffff",
"ab c #ffffff",
"ac c #ffffff",
"ad c #ffffff",
"ae c #ffffff",
"af c #ffffff",
"ag c #ffffff",
"ah c #ffffff",
"ai c #ffffff",
"aj c #ffffff",
"ak c #ffffff",
"al c #ffffff",
"am c #ffffff",
"an c #ffffff",
"ao c #ffffff",
"ap c #ffffff",
"aq c #ffffff",
"ar c #ffffff",
"as c #ffffff",
"at c #ffffff",
"au c #ffffff",
"av c #ffffff",
"aw c #ffffff",
"ax c #ffffff",
"ay c #ffffff",
"az c #ffffff",
"aA c #ffffff",
"aB c #ffffff",
"aC c #ffffff",
"aD c #ffffff",
"aE c #ffffff",
"aF c #ffffff",
"aG c #ffffff",
"aH c #ffffff",
"aI c #ffffff",
"aJ c #ffffff",
"aK c #ffffff",
"aL c #ffffff",
"aM c #ffffff",
"aN c #ffffff",
"aO c #ffffff",
"aP c #ffffff",
"aQ c #ffffff",
"aR c #ffffff",
"aS c #ffffff",
"aT c #ffffff",
"aU c #ffffff",
"aV c #ffffff",
"aW c #ffffff",
"aX c #ffffff",
"aY c #ffffff",
"aZ c #ffffff",
"a0 c #ffffff",
"a1 c #ffffff",
"a2 c #ffffff",
"a3 c #ffffff",
"a4 c #ffffff",
"a5 c #ffffff",
"a6 c #ffffff",
"a7 c #ffffff",
"a8 c #ffffff",
/* pixels */
"`P`P`P`P`P`P`P`P`P`P`P`P`P`P`P`P`P`P`P`P`P`P`P`P`P`P`P`P`P`P`P`P",
"`P`P`P`P`P`P`P`P`P`P`P`P`P`P`P`P`P`P`P`P`P`P`P`P`P`P`P`P`P`P`P`P",
"`P`P`P`P`P`P`P`P`P`P`P`N`I`H`H`H`G`H`G`H`G`F`D`h`P`P`P`P`P`P`P`P",
"`P`P`P`P`P`P`P`P`P`P`L`O`O`J`I`I`I`J`J`I`F`y`m```P`P`P`P`P`P`P`P",
"`P`P`P`P`P`P`P`P`P`P`H`H`E`y`v`x`D`K`O`L`D`i`.```P`P`P`P`P`P`P`P",
"`P`P`P`P`P`P`P`P`P`P`y`m```````````m`E`K`y```````P`P`P`P`P`P`P`P",
"`P`P`P`P`P`P`P`P`P`P`m`.```````````i`x`E`o```````P`P`P`P`P`P`P`P",
"`P`P`P`P`P`P`P`P`P`P`P`P`P`P`P`P`P`x`D`E`p```````P`P`P`P`P`P`P`P",
"`P`P```````````````````````````````F`G`G`x`````````````P`P`P`P`P",
"`P`P```M`M`M`M`M`M`M`M`M`M`M`M`M`M`G`H`H`x```````M`M```P`P`P`P`P",
"`P`P```M`M`M`M`M`M`M`M`M`M`M`M`M`M`G`H`H`x```````M`M```P`P`P`P`P",
"`P`P```M`M`M`M`M`M`M`M`M`M`M`M`M`M`G`H`H`x```````M`M```P`P`P`P`P",
"`P`P```M`M`M`````````````M`M`M`M`M`G`H`H`x```````M`M```P`P`P`P`P",
"`P`P```M`M`M`M`M`M`M`M`M`M`M`M`J`M`G`H`H`x```````M`M```P`P`P`P`P",
"`P`P```M`M`M`M`M`M`M`M`M`M`M`M`M`M`G`H`H`x```````M`M```P`P`P`P`P",
"`P`P```M`M`M`M`M`M`M`M`M`M`M`M`M`M`G`H`H`x```````M`M```P`P`P`P`P",
"`P`P```M`M`M`M`J```````````````````H`H`H`x```````M`M```P`P`P`P`P",
"`P`P```M`M`M`M`M`M`M`M`M`M`M`M`M`M`G`H`H`x```````M`M```P`P`P`P`P",
"`P`P```M`M`M`M`M`M`M`M`M`M`M`M`M`M`I`H`J`x```````M`M```P`P`P`P`P",
"`P`P```M`M`M```````````````````````L`K`K`x```````M`M```P`P`P`P`P",
"`P`P```M`M`M`M`M`M`M`M`M`M`M`M`M`M`L`N`N`s```````M`M```P`P`P`P`P",
"`P`P```M`M`M`M`M`M`M`M`M`M`M`M`M`I`O`O`O`g`````#`M`M```P`P`P`P`P",
"`P`P```M`M`M`````````````````````J`O`O`K```````l`M`M```P`P`P`P`P",
"`P`P```M`M`M`M`M`G`J`M`M`M`M`J`J`P`P`N`g```````z`M`M```P`P`P`P`P",
"`P`P```M`M`M`M`L`O`I`C`E`J`N`O`P`P`N`s```````#`L`M`M```P`P`P`P`P",
"`P`P```M`M`M`M`H`N`L`F`F`K`O`O`L`F`g`````````B`M`M`M```P`P`P`P`P",
"`P`P```M`M`M`M`F`C`x`n`q`w`s`h`b```````````z`````M`M```P`P`P`P`P",
"`P`P```M`M`M`M`C`n`a```````````````````f`I`M`M`M`M`M```P`P`P`P`P",
"`P`P```M`M`M`M`B`u`l`e`````````c`r`z`J`M`M`M`M`M`M`M```P`P`P`P`P",
"`P`P```M`M`M`M`M`M`M`M`M`M`M`M`M`M`M`M`M`M`M`M`M`M`M```P`P`P`P`P",
"`P`P```````````````````````````````````````````````````P`P`P`P`P",
"`P`P`P`P`P`P`P`P`P`P`P`P`P`P`P`P`P`P`P`P`P`P`P`P`P`P`P`P`P`P`P`P"
};
